<svg width="771" height="771" viewBox="0 0 771 771" fill="none" xmlns="http://www.w3.org/2000/svg">
<g clip-path="url(#clip0_14_6)">
<path d="M696 0H75C33.5786 0 0 33.5786 0 75V696C0 737.421 33.5786 771 75 771H696C737.421 771 771 737.421 771 696V75C771 33.5786 737.421 0 696 0Z" fill="#2C2C2C"/>
<path d="M252.447 532.894C296.877 532.894 332.894 496.877 332.894 452.447C332.894 408.017 296.877 372 252.447 372C208.017 372 172 408.017 172 452.447C172 496.877 208.017 532.894 252.447 532.894Z" fill="#456882"/>
<path d="M386.447 316.894C430.877 316.894 466.894 280.877 466.894 236.447C466.894 192.017 430.877 156 386.447 156C342.017 156 306 192.017 306 236.447C306 280.877 342.017 316.894 386.447 316.894Z" fill="#C62828"/>
</g>
<defs>
<clipPath id="clip0_14_6">
<rect width="771" height="771" fill="white"/>
</clipPath>
</defs>
</svg>
